<svg width="607" height="450px" viewBox="0 0 607 450" fill="none" xmlns="http://www.w3.org/2000/svg">
<path d="M344.204 272.823H399.247L415.38 162.342L473.148 143.983L545.389 227.178L471.145 312.884L344.204 272.823Z" fill="#50BFA5"/>
<path d="M463.114 392.808L273.335 391.128L284.723 218.07H491.213L557.426 323.853L463.114 392.808Z" fill="#466EB6"/>
<path d="M68.7939 302.114L92.7238 391.128H273.335L294.215 187.333L77.8173 88.2363L68.7939 302.114Z" fill="#50BFA5"/>
<path d="M491.213 218.07L429.006 323.853L364.272 254.048L402.405 215.848L491.213 218.07Z" fill="#355389"/>
<path d="M526.728 390.802H14.8164C14.4765 390.802 14.1506 390.937 13.9103 391.178C13.67 391.419 13.535 391.745 13.535 392.085V393.404C13.5326 393.574 13.564 393.743 13.6273 393.901C13.6907 394.059 13.7847 394.202 13.9039 394.323C14.0231 394.444 14.1652 394.54 14.3218 394.606C14.4785 394.672 14.6466 394.705 14.8164 394.705H526.728C527.378 394.705 527.919 393.838 527.919 392.772C527.919 391.706 527.378 390.802 526.728 390.802Z" fill="#184655"/>
<path opacity="0.2" d="M154.353 410.698C166.064 410.698 175.558 409.282 175.558 407.535C175.558 405.789 166.064 404.373 154.353 404.373C142.642 404.373 133.148 405.789 133.148 407.535C133.148 409.282 142.642 410.698 154.353 410.698Z" fill="#466EB6"/>
<path opacity="0.2" d="M182.795 419.19C194.506 419.19 204 417.014 204 414.33C204 411.645 194.506 409.469 182.795 409.469C171.084 409.469 161.59 411.645 161.59 414.33C161.59 417.014 171.084 419.19 182.795 419.19Z" fill="#466EB6"/>
<path opacity="0.2" d="M197.467 411.167C206.188 411.167 213.258 409.541 213.258 407.535C213.258 405.529 206.188 403.903 197.467 403.903C188.746 403.903 181.676 405.529 181.676 407.535C181.676 409.541 188.746 411.167 197.467 411.167Z" fill="#466EB6"/>
<path d="M298.059 318.251H243.396C243.396 358.005 231.322 378.172 224.465 386.466C224.117 386.885 223.896 387.394 223.828 387.935C223.76 388.475 223.848 389.024 224.082 389.516C224.315 390.008 224.684 390.423 225.145 390.711C225.606 391 226.14 391.151 226.684 391.146H314.752C315.298 391.155 315.834 391.006 316.298 390.719C316.762 390.431 317.134 390.017 317.369 389.524C317.605 389.031 317.694 388.481 317.627 387.939C317.56 387.397 317.339 386.886 316.99 386.466C310.132 378.172 298.059 357.951 298.059 318.251Z" fill="#0B3954"/>
<g style="mix-blend-mode:multiply">
<path d="M298.059 318.251H243.395C243.418 326.561 242.815 334.86 241.591 343.079L302.444 355.981C299.375 343.645 297.901 330.964 298.059 318.251Z" fill="#0B3954"/>
</g>
<path d="M435.683 120.401H105.772V333.954H435.683V120.401Z" fill="#0B3954"/>
<path d="M422.852 131.804H118.585V313.914H422.852V131.804Z" fill="white"/>
<path opacity="0.2" d="M406.357 164.167H337.094V290.802H406.357V164.167Z" fill="#50BFA5"/>
<path opacity="0.5" d="M190.266 162.36H129.196V301.193H190.266V162.36Z" fill="#FF858E"/>
<path d="M315.925 162.36H202.52V252.422H315.925V162.36Z" fill="#FF5A5F"/>
<path d="M315.925 230.99H202.52V252.421H315.925V230.99Z" fill="#C1CFDA"/>
<path d="M246.103 179.87V214.438L276.728 197.145L246.103 179.87Z" stroke="white" stroke-miterlimit="10"/>
<path d="M422.852 131.804H118.585V143.965H422.852V131.804Z" fill="#C1CFDA"/>
<path d="M131.235 137.893C131.239 138.305 131.12 138.709 130.895 139.053C130.669 139.397 130.346 139.666 129.967 139.826C129.588 139.986 129.17 140.03 128.766 139.952C128.363 139.874 127.991 139.677 127.699 139.387C127.407 139.097 127.208 138.727 127.126 138.323C127.045 137.92 127.085 137.501 127.241 137.12C127.398 136.74 127.664 136.414 128.005 136.185C128.347 135.956 128.749 135.833 129.16 135.833C129.707 135.833 130.233 136.05 130.621 136.435C131.01 136.821 131.231 137.345 131.235 137.893Z" stroke="white" stroke-width="0.65" stroke-linecap="round" stroke-linejoin="round"/>
<path d="M143.146 137.893C143.15 138.306 143.031 138.71 142.804 139.054C142.577 139.399 142.253 139.668 141.873 139.828C141.494 139.987 141.075 140.03 140.67 139.95C140.266 139.87 139.895 139.672 139.603 139.381C139.312 139.089 139.114 138.717 139.035 138.312C138.955 137.907 138.998 137.488 139.157 137.108C139.316 136.727 139.585 136.403 139.929 136.176C140.273 135.949 140.677 135.83 141.089 135.833C141.635 135.833 142.158 136.05 142.544 136.436C142.929 136.823 143.146 137.347 143.146 137.893Z" stroke="white" stroke-width="0.65" stroke-linecap="round" stroke-linejoin="round"/>
<path d="M155.057 137.893C155.061 138.306 154.942 138.71 154.715 139.054C154.488 139.399 154.164 139.668 153.784 139.828C153.404 139.987 152.986 140.03 152.581 139.95C152.177 139.87 151.806 139.672 151.514 139.381C151.223 139.089 151.025 138.717 150.946 138.312C150.866 137.907 150.909 137.488 151.068 137.108C151.227 136.727 151.496 136.403 151.84 136.176C152.184 135.949 152.588 135.83 153 135.833C153.545 135.833 154.069 136.05 154.455 136.436C154.84 136.823 155.057 137.347 155.057 137.893Z" stroke="white" stroke-width="0.65" stroke-linecap="round" stroke-linejoin="round"/>
<path opacity="0.2" d="M383.961 399.621C383.961 402.711 361.132 405.222 332.979 405.222C304.826 405.222 281.997 402.711 281.997 399.621C281.997 396.531 304.826 393.928 332.979 393.928C361.132 393.928 383.961 396.512 383.961 399.621Z" fill="#466EB6"/>
<path d="M307.985 363.047C307.985 363.047 305.512 382.309 304.754 387.658C303.708 395.266 293.06 393.079 292.753 395.537C292.446 397.994 308.49 398.952 309.97 397.796C311.45 396.639 309.302 395.989 310.89 389.483C312.478 382.978 317.622 362.631 317.622 362.631L307.985 363.047Z" fill="#F7A491"/>
<path d="M358.136 362.848C358.136 362.848 365.752 381.695 367.521 387.64C369.722 395.013 360.302 395.085 360.555 397.507C360.645 398.627 374.992 397.687 376.273 396.278C377.555 394.868 375.533 392.302 373.873 388.363C370.968 381.406 367.575 360.734 367.575 360.734L358.136 362.848Z" fill="#F7A491"/>
<path d="M346.135 263.372C351.626 283.291 355.019 303.732 356.259 324.358C356.259 324.358 367.918 347.488 370.552 364.004H356.259C344.928 340.55 337.143 315.538 333.16 289.79C333.16 289.79 329.424 308.999 325.472 325.262C325.472 325.262 326.789 349.711 324.154 364.022H307.425C307.425 364.022 308.309 328.352 312.045 306.541C315.781 284.731 318.65 263.39 318.65 263.39L346.135 263.372Z" fill="#355389"/>
<path d="M350.99 283.701C348.517 271.413 346.135 263.318 346.135 263.318H318.65C318.65 263.318 318.145 267.095 317.279 273.094C323.469 277.105 337.004 284.478 350.99 283.701Z" fill="#0B3954"/>
<path d="M310.403 223.527L297.77 232.165C297.77 232.165 285.805 220.257 284.65 218.07C283.495 215.884 282.485 213.065 280.301 211.402C278.117 209.74 273.461 208.33 273.263 208.963C273.064 209.595 276.529 210.119 277.486 211.023C277.486 211.023 275.501 214.474 277.161 216.986C278.357 218.576 280.045 219.726 281.961 220.257C281.961 220.257 290.804 240.333 296.814 240.947C299.954 241.254 315.041 230.105 315.041 230.105L310.403 223.527Z" fill="#F7A491"/>
<path d="M327.421 185.4C318.163 187.64 321.718 193.875 319.914 197.127C318.109 200.38 312.28 203.596 314.229 209.361C316.178 215.125 318.271 218.179 316.178 220.022C314.084 221.865 312.28 225.226 321.718 225.226H342.111C349.745 225.226 351.856 220.564 348.554 213.842C345.251 207.12 344.944 196.368 345.504 191.706C346.063 187.044 333.719 183.882 327.421 185.4Z" fill="#061C73"/>
<path d="M317.928 232.472C318.145 235.038 319.3 237.008 319.589 241.923C319.877 246.838 317.459 266.372 317.459 266.372C330.579 271.883 349.943 266.372 349.943 266.372C344.8 255.53 345.54 241.074 345.54 241.074C348.507 240.21 351.398 239.104 354.184 237.767C355.285 236.809 351.549 227.919 350.015 224.106C348.481 220.293 344.8 214.854 340.848 214.203C336.895 213.553 330.146 213.101 330.146 213.101C325.959 213.101 319.95 215.739 316.07 218.522C313.84 220.152 311.696 221.895 309.645 223.744L313.724 233.538C313.797 233.718 313.909 233.878 314.053 234.008C314.197 234.137 314.368 234.233 314.554 234.287C314.739 234.34 314.935 234.352 315.126 234.319C315.316 234.286 315.497 234.211 315.655 234.099L317.928 232.472Z" fill="#50BFA5"/>
<path d="M332.059 191.055C335.47 191.055 339.765 192.862 340.415 199.874C341.064 206.885 338.808 210.878 338.953 214.474C338.953 214.474 330.886 217.564 330.886 214.474C330.886 211.384 331.247 209.921 330.308 209.342C329.37 208.764 325.472 209.18 324.894 207.138C324.317 205.096 325.147 202.548 324.425 201.301C324.027 200.585 323.387 200.034 322.62 199.747C322.62 199.747 324.172 199.639 325.255 196.639C326.338 193.639 328.612 191.092 332.059 191.055Z" fill="#F7A491"/>
<g style="mix-blend-mode:multiply">
<path d="M327.024 208.692C328.124 208.81 329.211 209.028 330.272 209.342C331.211 209.921 330.85 211.384 330.85 214.474C330.85 217.564 338.917 214.474 338.917 214.474C338.79 211.276 340.559 207.698 340.487 202.042C340.287 202.103 340.119 202.239 340.018 202.421C337.671 205.602 329.063 208.945 327.024 208.692Z" fill="#F7A491"/>
</g>
<path d="M324.84 186.285C324.84 186.285 322.097 191.923 330.128 194.073C338.159 196.224 331.03 206.722 335.65 213.39C340.27 220.058 347.724 217.329 346.135 224.702C344.547 232.075 345.955 236.267 352.289 236.267C358.624 236.267 352.777 243.856 357.397 243.856C362.016 243.856 371.617 239.321 366.42 230.485C361.222 221.648 356.548 221.16 357.866 211.33C359.183 201.5 353.571 179.545 324.84 186.285Z" fill="#0B3954"/>
<path d="M358.335 258.077H332.221C331.524 258.077 330.958 258.644 330.958 259.342V278.948C330.958 279.647 331.524 280.213 332.221 280.213H358.335C359.033 280.213 359.598 279.647 359.598 278.948V259.342C359.598 258.644 359.033 258.077 358.335 258.077Z" fill="white"/>
<path d="M346.027 239.519L351.658 255.548C351.658 255.548 344.042 275.515 342.869 276.925C341.696 278.334 337.581 280.737 338.032 281.243C338.484 281.749 340.667 280.376 340.667 280.376C340.667 280.376 338.754 282.183 340.451 282.183H344.259C345.865 282.183 346.749 277.34 346.749 277.34C346.749 277.34 357.884 261.402 358.263 255.656C358.57 250.759 354.653 239.845 353.444 236.737C353.404 236.625 353.342 236.523 353.262 236.436C353.182 236.349 353.085 236.279 352.977 236.23C352.87 236.181 352.753 236.155 352.635 236.152C352.517 236.149 352.399 236.169 352.289 236.213L346.496 238.363C346.281 238.455 346.111 238.628 346.024 238.844C345.936 239.061 345.937 239.304 346.027 239.519Z" fill="#F7A491"/>
<path style="mix-blend-mode:multiply" opacity="0.46" d="M377.825 172.967C375.117 172.961 372.453 173.659 370.094 174.992C367.736 176.326 365.764 178.249 364.37 180.575C362.977 182.901 362.211 185.549 362.146 188.26C362.081 190.972 362.721 193.653 364.002 196.043C361.756 198.356 358.802 199.851 355.61 200.289C357.52 201.45 359.679 202.137 361.907 202.294C364.136 202.451 366.37 202.074 368.423 201.193C370.408 202.686 372.719 203.685 375.166 204.108C377.613 204.531 380.125 204.366 382.495 203.626C384.865 202.886 387.026 201.592 388.798 199.851C390.571 198.111 391.905 195.973 392.691 193.615C393.477 191.257 393.691 188.745 393.317 186.288C392.943 183.83 391.99 181.497 390.538 179.48C389.086 177.463 387.176 175.821 384.966 174.689C382.756 173.556 380.308 172.966 377.825 172.967Z" fill="url(#paint0_linear)"/>
<path d="M376.526 171.666C373.827 171.678 371.177 172.387 368.832 173.725C366.486 175.062 364.526 176.984 363.139 179.302C361.753 181.621 360.987 184.259 360.917 186.96C360.847 189.662 361.474 192.336 362.738 194.724C360.499 197.046 357.542 198.543 354.347 198.97C356.256 200.131 358.415 200.818 360.644 200.975C362.872 201.132 365.106 200.755 367.16 199.874C369.145 201.373 371.458 202.377 373.908 202.804C376.358 203.23 378.874 203.067 381.248 202.327C383.623 201.587 385.787 200.291 387.562 198.547C389.337 196.804 390.672 194.662 391.456 192.299C392.241 189.937 392.452 187.421 392.073 184.96C391.694 182.499 390.736 180.164 389.277 178.148C387.818 176.132 385.9 174.492 383.683 173.365C381.466 172.238 379.013 171.656 376.526 171.666Z" fill="white"/>
<path d="M376.797 178.695C377.554 178.693 378.308 178.803 379.034 179.021C379.722 179.219 380.37 179.537 380.947 179.96C381.504 180.369 381.965 180.893 382.301 181.496C382.651 182.138 382.826 182.861 382.806 183.592C382.816 184.173 382.712 184.75 382.499 185.291C382.309 185.756 382.047 186.189 381.723 186.574C381.413 186.954 381.069 187.305 380.695 187.622L379.63 188.526C379.314 188.793 379.024 189.09 378.764 189.411C378.524 189.694 378.367 190.038 378.313 190.405C378.281 190.577 378.207 190.739 378.096 190.875C378.04 190.933 377.972 190.978 377.898 191.009C377.824 191.041 377.744 191.056 377.663 191.055H375.858C375.684 191.059 375.516 190.994 375.389 190.875C375.322 190.818 375.27 190.745 375.239 190.663C375.207 190.581 375.197 190.492 375.209 190.405C375.227 189.829 375.362 189.264 375.606 188.742C375.835 188.276 376.12 187.839 376.454 187.441C376.781 187.071 377.137 186.726 377.519 186.411C377.916 186.104 378.258 185.815 378.583 185.526C378.881 185.275 379.147 184.99 379.377 184.677C379.588 184.409 379.702 184.078 379.702 183.737C379.708 183.44 379.64 183.145 379.504 182.881C379.369 182.616 379.17 182.389 378.926 182.219C378.319 181.796 377.589 181.586 376.851 181.623C376.195 181.613 375.553 181.806 375.011 182.174C374.468 182.543 374.052 183.069 373.819 183.683C373.762 183.836 373.677 183.977 373.566 184.098C373.438 184.199 373.276 184.244 373.115 184.225H371.148C371.008 184.224 370.874 184.173 370.769 184.08C370.714 184.03 370.672 183.968 370.644 183.9C370.616 183.831 370.603 183.757 370.607 183.683C370.631 183.047 370.811 182.426 371.13 181.876C371.481 181.268 371.933 180.724 372.465 180.267C373.058 179.778 373.721 179.382 374.432 179.093C375.189 178.813 375.991 178.678 376.797 178.695ZM377.771 192.519C377.947 192.524 378.114 192.595 378.238 192.72C378.362 192.844 378.434 193.012 378.439 193.188V195.32C378.434 195.496 378.362 195.663 378.238 195.788C378.114 195.912 377.947 195.984 377.771 195.988H375.678C375.507 195.984 375.345 195.913 375.227 195.79C375.164 195.729 375.114 195.656 375.079 195.575C375.045 195.494 375.028 195.408 375.028 195.32V193.188C375.028 193.1 375.045 193.013 375.079 192.932C375.114 192.852 375.164 192.779 375.227 192.718C375.345 192.595 375.507 192.523 375.678 192.519H377.771Z" fill="#FF5A5F"/>
<path d="M157.602 396.494V345.374H149.787V396.874C149.811 397.649 149.595 398.412 149.168 399.059C148.742 399.706 148.126 400.205 147.405 400.488C143.146 402.096 140.187 404.734 140.187 405.819C140.187 407.391 146.467 408.674 154.191 408.674C161.915 408.674 168.195 407.391 168.195 405.819C168.195 404.662 164.875 401.699 160.092 400.163C159.341 399.897 158.693 399.398 158.245 398.738C157.797 398.078 157.572 397.292 157.602 396.494Z" fill="#F7A491"/>
<g style="mix-blend-mode:multiply" opacity="0.41">
<path d="M157.602 361.221V345.374H149.751V357.824L157.602 361.221Z" fill="#F7A491"/>
</g>
<path d="M170.252 333.177C166.788 333.269 163.413 332.074 160.777 329.822C158.141 327.569 156.431 324.419 155.977 320.98C153.469 302.15 148.759 268.07 146.593 262.234C143.561 254.084 141.919 255.15 132.463 255.15H114.416C107.829 255.15 109.146 267.42 111.348 281.279C113.55 295.139 118.819 321.142 121.454 331.713C124.089 342.284 131.488 349.115 142.298 349.115H176.334C183.751 349.115 192.576 347.434 193.605 343.314C194.435 339.785 195.038 336.206 195.409 332.599L170.252 333.177Z" fill="#F7A491"/>
<path d="M167.834 269.841C171.137 273.69 171.786 284.297 173.988 292.194C176.407 299.644 179.233 306.955 182.452 314.095H170.288C168.041 305.22 166.71 296.137 166.318 286.99C165.885 272.859 167.834 269.841 167.834 269.841Z" fill="#0B3954"/>
<path d="M146.593 254.084C146.593 254.084 144.662 251.283 145.384 249.404C143.182 246.097 142.569 243.025 143.832 241.092C144.175 236.682 141.558 233.863 142.515 232.237C145.095 227.611 150.112 229.147 152.693 227.991C155.274 226.834 160.056 222.57 166.553 225.895C173.05 229.219 170.072 234.207 171.877 236.863C173.681 239.519 174.241 242.194 172.147 243.965C170.054 245.736 169.133 244.344 168.033 245.446C166.932 246.549 165.398 248.302 165.398 248.302L146.593 254.084Z" fill="#0B3954"/>
<path d="M167.383 242.302C167.466 244 167.369 245.702 167.094 247.38C166.661 249.079 167.997 251.355 167.491 251.572C166.986 251.789 165.687 251.175 165.687 251.175C165.687 251.175 164.044 257.282 162.438 257.174C161.042 257.019 159.695 256.57 158.486 255.855L154.877 265.974C154.877 265.974 148.939 266.697 145.474 263.227C142.009 259.758 146.449 254.192 147.73 247.814C147.73 247.814 148.596 248.247 149.643 246.386C150.69 244.525 148.434 241.869 150.582 241.092C152.729 240.315 152.386 243.621 152.17 244.29C151.953 244.959 153.974 243.567 154.48 240.983C156.417 240.718 158.215 239.83 159.605 238.453C159.937 239.269 160.535 239.947 161.303 240.377C162.07 240.807 162.96 240.963 163.828 240.821C163.828 240.821 165.181 243.35 167.383 242.302Z" fill="#F7A491"/>
<path d="M158.414 255.855L159.118 256.234C158.899 256.08 158.663 255.952 158.414 255.855Z" fill="url(#paint1_linear)"/>
<g style="mix-blend-mode:multiply">
<path d="M152.458 255.096C153.848 256.234 156.068 257.445 157.511 258.421L158.414 255.855C151.7 253.343 149.769 245.989 149.769 245.989C149.731 246.127 149.677 246.26 149.607 246.386C149.336 246.874 147.929 247.597 147.694 247.814C149.156 250.09 150.311 253.361 152.458 255.096Z" fill="#F7A491"/>
</g>
<path d="M141.684 257.517C139.645 258.33 127.464 258.746 122.05 266.046C116.636 273.347 126.435 318.612 132.607 318.612H174.114C167.744 303.199 167.96 269.823 167.96 269.823C165.563 267.362 162.821 265.262 159.821 263.589C159.821 263.589 159.551 262.27 159.497 261.782C159.442 261.294 157.078 259.794 157.078 259.794L156.374 261.8L153.325 265.197C153.325 265.197 153.884 260.842 150.636 259.36C148.668 258.42 146.845 257.203 145.222 255.746L145.871 253.939C145.163 253.88 144.45 253.88 143.742 253.939C142.731 254.192 141.684 257.517 141.684 257.517Z" fill="#355389"/>
<path d="M227.388 312.396H180.467L189.671 279.87C189.835 279.292 190.183 278.784 190.662 278.422C191.14 278.06 191.724 277.864 192.323 277.864H235.058C235.279 277.867 235.496 277.919 235.695 278.017C235.893 278.114 236.067 278.254 236.205 278.427C236.343 278.599 236.441 278.801 236.493 279.016C236.544 279.231 236.547 279.455 236.502 279.671L227.388 312.396Z" fill="#C1CFDA"/>
<path d="M192.125 309.668H142.298V312.396H192.125V309.668Z" fill="#C1CFDA"/>
<path d="M158.305 307.933C160.256 308.694 162.315 309.139 164.405 309.252C168.015 309.469 174.457 311.059 176.334 312.866H157.854L158.305 307.933Z" fill="#F7A491"/>
<path d="M125.19 264.565C130.604 264.565 133.004 272.371 133.112 279.021C133.112 284.442 133.997 293.477 134.303 296.946C134.34 297.351 134.492 297.737 134.742 298.057C134.991 298.378 135.328 298.619 135.711 298.753L159.731 307.192V312.812H128.709C120.805 312.812 117.719 312.053 117.285 298.717C116.852 285.381 117.61 264.565 125.19 264.565Z" fill="#466EB6"/>
<path d="M190.807 392.808C190.807 392.808 189.003 404.572 189.851 406.144C190.699 407.716 206.292 410.842 207.483 409.396C208.674 407.951 198.676 405.313 198.333 401.283C198.235 398.441 198.465 395.597 199.019 392.808H190.807Z" fill="#F7A491"/>
<path d="M178.933 341.417L193.605 343.314L189.995 394.254H200.697C200.697 394.254 211.399 354.626 214.034 341.417C216.668 328.207 198.513 321.142 184.437 317.618H153.126C153.126 317.618 151.809 333.195 178.933 341.417Z" fill="#355389"/>
<g style="mix-blend-mode:multiply" opacity="0.36">
<path d="M184.437 317.618H153.126C153.126 317.618 151.809 333.195 178.933 341.417L188.425 342.646L203.278 324.575C197.313 321.476 190.983 319.139 184.437 317.618Z" fill="#355389"/>
</g>
<path d="M172.039 398.229C172.039 398.229 172.562 411.511 173.447 413.282C174.331 415.053 191.493 418.341 192.793 416.733C194.092 415.125 183.769 411.872 181.965 407.698C180.921 404.656 180.474 401.441 180.647 398.229H172.039Z" fill="#F7A491"/>
<path d="M376.273 396.278C377.212 395.23 376.273 393.531 375.154 391.128C372.592 391.979 369.891 392.334 367.196 392.176C365.391 395.212 360.428 395.79 360.555 397.506C360.645 398.627 375.01 397.687 376.273 396.278Z" fill="#0B3954"/>
<path d="M310.403 392.736C305.747 393.314 303.184 392.899 301.795 392.266C298.294 394.38 293.042 393.856 292.771 395.537C292.465 398.049 308.508 398.952 309.988 397.796C311.161 396.856 310.024 396.296 310.403 392.736Z" fill="#0B3954"/>
<path d="M207.537 409.397C208.547 408.15 201.257 405.999 199.019 402.855C195.996 403.736 192.792 403.786 189.743 403C189.613 404.049 189.668 405.114 189.905 406.144C190.627 407.734 206.292 410.842 207.537 409.397Z" fill="#0B3954"/>
<path d="M173.447 413.282C174.313 415.089 191.493 418.341 192.793 416.733C194.092 415.125 186.531 412.794 183.282 409.505C179.727 409.856 176.137 409.556 172.689 408.62C172.749 410.199 173.003 411.765 173.447 413.282Z" fill="#0B3954"/>
<path d="M161.337 317.474C161.337 317.474 176.731 322.768 181.423 334.062C186.115 345.356 183.914 399.837 183.914 399.837H171.01L160.309 342.88C160.309 342.88 143.02 342.736 136.27 339.79C129.521 336.845 130.117 322.768 132.156 316.01L161.337 317.474Z" fill="#466EB6"/>
<path d="M228.67 316.01H223.616V418.938H228.67V316.01Z" fill="#FF5A5F"/>
<path d="M124.197 316.01H119.144V418.938H124.197V316.01Z" fill="#FF5A5F"/>
<path opacity="0.5" d="M228.67 316.01H223.616V331.695H228.67V316.01Z" fill="#C81D25"/>
<path opacity="0.5" d="M124.197 316.01H119.144V331.695H124.197V316.01Z" fill="#C81D25"/>
<path d="M234.192 312.396H113.658V319.606H234.192V312.396Z" fill="#FF5A5F"/>
<path d="M146.178 150.85H45.1528V216.209H111.907L131.434 232.039L128.691 216.209H146.178V150.85Z" fill="#FF5A5F"/>
<path d="M457.086 123.112L462.103 88.2363L489.191 99.2772L457.086 123.112Z" fill="#466EB6"/>
<path d="M125.136 75.6597L162.222 100.813L191.674 88.9051L125.136 75.6597Z" fill="#087E8B"/>
<path d="M570.077 354.337L544.053 385.454L593.266 388.218L570.077 354.337Z" fill="#355389"/>
<defs>
<linearGradient id="paint0_linear" x1="374.541" y1="170.347" x2="374.541" y2="208.999" gradientUnits="userSpaceOnUse">
<stop stop-color="#C5C5C5"/>
<stop offset="1" stop-color="#5B5B5A"/>
</linearGradient>
<linearGradient id="paint1_linear" x1="160.327" y1="252.223" x2="157.161" y2="259.972" gradientUnits="userSpaceOnUse">
<stop offset="0.04" stop-color="#FF5773"/>
<stop offset="1" stop-color="#FF5773" stop-opacity="0"/>
</linearGradient>
</defs>
</svg>
