<svg width="641" height="475" viewBox="0 0 641 475" fill="none" xmlns="http://www.w3.org/2000/svg">
<path d="M175.71 234.229L171.861 227.038L173.1 220.343" stroke="#0B3954" stroke-miterlimit="10"/>
<path d="M127.323 369.196L95.1732 396.167L108.78 428.154H282.356V402.595L127.323 369.196Z" fill="#466EB6"/>
<path d="M216.36 279.243L140.34 289.486L148.515 356.436L304.596 397.922L216.36 279.243Z" fill="#466EB6"/>
<path d="M289.217 376.464L205.383 323.019L126.733 338.583L289.693 394.622L289.217 376.464Z" fill="#355389"/>
<path d="M277.478 414.268L175.939 419.037L126.733 338.583L289.693 394.622L277.478 414.268Z" fill="#50BFA5"/>
<path d="M239.839 229.537L321.577 250.461L338.595 382.911L284.3 401.66L239.839 229.537Z" fill="#50BFA5"/>
<path d="M216.36 279.243L239.839 229.537L284.3 401.66L216.36 279.243Z" fill="#087E8B"/>
<path d="M322.167 59.6635C319.515 60.0696 317.047 61.2669 315.084 63.0989C313.122 64.931 311.758 67.3126 311.169 69.9329C310.581 72.5531 310.795 75.2901 311.785 77.7864C312.775 80.2827 314.493 82.4223 316.717 83.9257C318.435 85.151 319.658 86.9505 320.166 88.9994L321.939 96.133C322.158 97.0907 322.739 97.9267 323.559 98.4668C324.379 99.0069 325.375 99.2095 326.341 99.0323L330.781 98.3075C331.753 98.1651 332.631 97.6534 333.235 96.8788C333.838 96.1043 334.12 95.1266 334.021 94.1493C333.411 86.7677 332.649 84.0973 335.031 80.7975C336.614 78.6632 337.524 76.1048 337.645 73.4498C337.766 70.7947 337.093 68.1639 335.711 65.8941C334.33 63.6243 332.303 61.8189 329.89 60.7089C327.477 59.5989 324.788 59.2349 322.167 59.6635Z" fill="#F7CC7F"/>
<path d="M323.349 90.8873C322.587 84.5738 321.443 77.8979 321.157 76.0095C314.449 76.391 317.003 69.3146 320.09 72.1947C320.928 73.0538 321.475 74.1548 321.653 75.3419C323.89 75.1214 326.063 74.4739 328.056 73.4345C327.809 72.1674 327.868 70.8595 328.228 69.6197C328.349 69.296 328.556 69.0113 328.827 68.7962C329.097 68.5811 329.421 68.4437 329.764 68.3986C330.106 68.3535 330.455 68.4025 330.772 68.5403C331.089 68.6782 331.362 68.8996 331.563 69.181C331.718 69.4718 331.81 69.7919 331.833 70.1205C331.856 70.4492 331.809 70.779 331.696 71.0884C331.039 72.3077 329.982 73.2639 328.704 73.7969C329.066 78.8325 329.562 83.8871 330.172 88.8654H329.543C328.914 83.9634 328.457 78.966 328.094 74.0258C326.135 75.0135 324.009 75.6279 321.824 75.8379C322.282 78.2412 323.292 84.7454 323.997 90.6774L323.349 90.8873ZM317.975 74.5218C318.394 74.8779 318.885 75.139 319.415 75.2872C319.945 75.4353 320.5 75.467 321.043 75.3801C320.879 74.3507 320.399 73.3976 319.671 72.6525C317.994 71.1075 316.984 73.4536 317.975 74.5218ZM328.819 70.0012C328.538 71.0265 328.486 72.1008 328.666 73.1484C329.706 72.6919 330.569 71.9085 331.125 70.9168C331.278 70.5651 331.286 70.1669 331.147 69.8093C331.008 69.4517 330.732 69.1641 330.381 69.0094C330.286 69.0284 329.066 69.4099 328.819 70.0012Z" fill="#FAE0B2"/>
<path d="M320.167 88.8087C320.156 88.8719 320.156 88.9363 320.167 88.9995L321.939 96.1331C322.158 97.0908 322.739 97.9268 323.559 98.4669C324.379 99.007 325.376 99.2096 326.341 99.0324L330.782 98.3076C331.753 98.1652 332.631 97.6535 333.235 96.8789C333.838 96.1044 334.12 95.1267 334.021 94.1494C333.735 90.8687 333.431 88.4272 333.411 86.6343L320.167 88.8087Z" fill="#0B3954"/>
<path d="M313.496 54.3421L310.009 47.9523C309.908 47.805 309.84 47.6382 309.808 47.4628C309.776 47.2874 309.781 47.1072 309.822 46.9338C309.864 46.7604 309.941 46.5976 310.05 46.456C310.158 46.3143 310.295 46.197 310.451 46.1114C310.607 46.0258 310.78 45.9739 310.957 45.959C311.135 45.9442 311.314 45.9667 311.482 46.0251C311.65 46.0835 311.805 46.1766 311.935 46.2982C312.065 46.4199 312.169 46.5675 312.238 46.7316L315.745 53.1214C315.907 53.4199 315.944 53.7704 315.847 54.0959C315.751 54.4214 315.529 54.6952 315.231 54.8571C314.932 55.019 314.582 55.0557 314.257 54.9591C313.932 54.8625 313.658 54.6406 313.496 54.3421Z" fill="#FAE0B2"/>
<path d="M305.854 69.7917L298.231 69.1432C297.894 69.1235 297.578 68.9729 297.35 68.7236C297.123 68.4742 297.001 68.1457 297.011 67.808C297.019 67.6401 297.059 67.4754 297.13 67.3231C297.201 67.1708 297.302 67.0341 297.426 66.9207C297.549 66.8073 297.694 66.7195 297.852 66.6623C298.01 66.6051 298.178 66.5796 298.346 66.5873H298.46L306.083 67.2549C306.42 67.2746 306.736 67.4251 306.964 67.6745C307.191 67.9239 307.313 68.2523 307.303 68.59C307.295 68.7579 307.255 68.9227 307.184 69.075C307.113 69.2272 307.012 69.3639 306.889 69.4773C306.765 69.5907 306.62 69.6785 306.462 69.7358C306.304 69.793 306.136 69.8185 305.969 69.8108H305.854V69.7917Z" fill="#FAE0B2"/>
<path d="M298.308 93.1764C298.173 93.0565 298.066 92.9096 297.992 92.7453C297.919 92.5809 297.881 92.4028 297.881 92.2227C297.881 92.0426 297.919 91.8646 297.992 91.7002C298.066 91.5359 298.173 91.3889 298.308 91.269C300.18 89.4086 302.229 87.7349 304.425 86.2716C304.564 86.1791 304.719 86.1151 304.883 86.0833C305.046 86.0514 305.214 86.0524 305.377 86.0861C305.54 86.1198 305.695 86.1856 305.833 86.2797C305.97 86.3737 306.088 86.4942 306.178 86.634C306.274 86.7707 306.341 86.9253 306.376 87.0887C306.411 87.252 306.412 87.4207 306.38 87.5846C306.348 87.7485 306.283 87.9042 306.19 88.0424C306.096 88.1806 305.976 88.2984 305.835 88.3889C303.789 89.773 301.875 91.3438 300.118 93.0811C300.007 93.2092 299.872 93.3136 299.72 93.388C299.568 93.4625 299.402 93.5055 299.233 93.5144C299.064 93.5233 298.895 93.4979 298.736 93.4399C298.577 93.3818 298.431 93.2922 298.308 93.1764Z" fill="#FAE0B2"/>
<path d="M332.325 53.9983C332.162 53.9561 332.009 53.8821 331.875 53.7806C331.741 53.6791 331.628 53.552 331.543 53.4066C331.458 53.2613 331.402 53.1005 331.38 52.9336C331.357 52.7668 331.367 52.597 331.41 52.4342C332.273 49.1912 332.797 45.8672 332.973 42.5157C332.983 42.1784 333.124 41.8582 333.366 41.6231C333.608 41.3881 333.932 41.2567 334.269 41.2568C334.437 41.2568 334.604 41.2905 334.759 41.3562C334.914 41.4218 335.055 41.518 335.172 41.6389C335.289 41.7599 335.381 41.9032 335.442 42.0604C335.503 42.2176 335.532 42.3854 335.527 42.5539V42.6492C335.339 46.1754 334.783 49.6723 333.869 53.0827C333.829 53.245 333.757 53.3978 333.657 53.532C333.558 53.6662 333.432 53.7792 333.289 53.8645C333.145 53.9497 332.986 54.0054 332.82 54.0284C332.655 54.0514 332.487 54.0411 332.325 53.9983Z" fill="#FAE0B2"/>
<path d="M340.177 63.8028C340.127 63.6425 340.109 63.4739 340.124 63.3065C340.138 63.1392 340.186 62.9765 340.264 62.8277C340.342 62.6789 340.449 62.5469 340.577 62.4393C340.706 62.3317 340.855 62.2506 341.015 62.2006L348.943 59.8163C349.106 59.757 349.28 59.7314 349.453 59.7413C349.626 59.7512 349.795 59.7963 349.95 59.8738C350.105 59.9513 350.243 60.0596 350.355 60.1922C350.467 60.3247 350.551 60.4787 350.601 60.6447C350.652 60.8108 350.668 60.9854 350.649 61.1579C350.63 61.3304 350.576 61.4972 350.49 61.6481C350.405 61.799 350.289 61.9309 350.151 62.0358C350.013 62.1406 349.855 62.2161 349.687 62.2578L341.759 64.6611C341.435 64.756 341.087 64.719 340.791 64.5582C340.495 64.3974 340.274 64.1259 340.177 63.8028Z" fill="#FAE0B2"/>
<path d="M353.193 84.8984C353.08 84.9166 352.964 84.9166 352.85 84.8984C350.106 84.1115 347.454 83.0308 344.941 81.6749C344.641 81.5155 344.415 81.2432 344.315 80.9176C344.215 80.5921 344.248 80.2402 344.408 79.9392C344.567 79.6382 344.839 79.4128 345.164 79.3126C345.489 79.2125 345.841 79.2457 346.142 79.4051C348.505 80.6666 350.997 81.6705 353.574 82.3997C353.894 82.4849 354.168 82.6929 354.335 82.9785C354.503 83.2642 354.551 83.6045 354.47 83.9256C354.392 84.1943 354.229 84.4305 354.006 84.5989C353.783 84.7674 353.511 84.8591 353.231 84.8603L353.193 84.8984Z" fill="#FAE0B2"/>
<path d="M447.204 141.319L443.202 131.782L433.159 129.722C432.793 129.64 432.474 129.419 432.268 129.106C432.062 128.793 431.985 128.412 432.053 128.044C432.125 127.744 432.284 127.472 432.511 127.262L440.229 120.605L439.085 110.4C439.062 110.216 439.075 110.028 439.125 109.849C439.174 109.67 439.259 109.502 439.375 109.357C439.49 109.211 439.634 109.09 439.797 109C439.96 108.911 440.139 108.855 440.324 108.836C440.636 108.801 440.95 108.868 441.22 109.027L450.024 114.33L459.363 110.095C459.534 110.013 459.719 109.965 459.909 109.956C460.098 109.947 460.288 109.976 460.466 110.042C460.643 110.108 460.806 110.209 460.944 110.34C461.082 110.47 461.192 110.627 461.268 110.801C461.395 111.082 461.428 111.396 461.364 111.697L459.039 121.711L465.957 129.341C466.178 129.615 466.291 129.961 466.274 130.313C466.256 130.665 466.109 130.998 465.861 131.248C465.622 131.459 465.321 131.586 465.004 131.611L454.77 132.488L449.758 141.453C449.58 141.781 449.28 142.025 448.923 142.133C448.566 142.24 448.181 142.201 447.852 142.025C447.556 141.878 447.325 141.627 447.204 141.319Z" fill="#FF5A5F"/>
<path d="M435.407 426.323H243.117C241.336 426.296 239.578 425.917 237.943 425.209C236.308 424.501 234.829 423.477 233.59 422.196C232.351 420.915 231.376 419.402 230.722 417.744C230.068 416.086 229.746 414.315 229.777 412.532V404.369C229.746 402.585 230.067 400.813 230.721 399.154C231.376 397.495 232.35 395.98 233.589 394.698C234.827 393.416 236.306 392.39 237.941 391.68C239.576 390.97 241.335 390.589 243.117 390.559H435.407C431.149 395.453 428.774 401.707 428.712 408.196C428.649 414.686 430.901 420.985 435.064 425.96L435.407 426.323Z" fill="#FF5A5F"/>
<path d="M432.434 394.622H325.884C324.102 394.652 322.343 395.033 320.708 395.743C319.073 396.453 317.594 397.479 316.355 398.761C315.117 400.043 314.142 401.558 313.488 403.217C312.834 404.876 312.513 406.648 312.543 408.432C312.513 410.214 312.834 411.985 313.489 413.644C314.143 415.302 315.118 416.815 316.357 418.095C317.596 419.376 319.075 420.4 320.71 421.108C322.344 421.816 324.103 422.195 325.884 422.222H432.606C430.137 418.049 428.82 413.295 428.79 408.445C428.76 403.596 430.017 398.825 432.434 394.622Z" fill="#FAE0B2"/>
<path d="M367.81 365.629C367.855 365.536 367.881 365.434 367.886 365.33C367.891 365.226 367.875 365.122 367.84 365.025C367.804 364.927 367.75 364.837 367.679 364.761C367.609 364.685 367.524 364.623 367.429 364.58C367.298 364.544 367.16 364.544 367.029 364.58H265.319C257.334 364.58 250.873 370.398 250.873 377.589C250.873 384.78 257.334 390.597 265.319 390.597H367.086C367.191 390.605 367.297 390.592 367.397 390.559C367.497 390.525 367.59 390.473 367.669 390.404C367.749 390.334 367.814 390.25 367.861 390.156C367.908 390.061 367.936 389.959 367.944 389.853C367.98 389.722 367.98 389.584 367.944 389.453C365.935 385.809 364.87 381.72 364.847 377.558C364.824 373.396 365.842 369.295 367.81 365.629Z" fill="#087E8B"/>
<path d="M367.219 366.927H316.793C307.417 366.927 299.832 371.81 299.832 377.818C299.832 383.826 307.455 388.728 316.793 388.728H367.543C365.833 385.359 364.915 381.644 364.859 377.865C364.803 374.087 365.61 370.345 367.219 366.927Z" fill="#F7CC7F"/>
<path d="M354.184 372.096H347.628C346.199 372.096 345.056 372.573 345.056 373.145V373.24H354.184V372.096Z" fill="#C81D25"/>
<path d="M359.787 374.747C359.787 373.278 358.072 372.096 355.976 372.096H347.552C349.153 372.096 350.449 373.011 350.449 374.118V402.595L355.118 398.933L359.863 402.595L359.787 374.747Z" fill="#F47458"/>
<path d="M349.153 363.57H289.941C284.7 363.57 280.412 358.515 280.412 352.278C280.412 346.04 284.681 340.986 289.941 340.986H349.153C346.933 344.194 345.709 347.988 345.634 351.89C345.559 355.792 346.638 359.63 348.734 362.921L349.153 363.57Z" fill="#FAE0B2"/>
<path d="M280.451 352.278C280.451 346.04 284.796 340.986 290.17 340.986H350.258C350.403 340.971 350.537 340.902 350.633 340.792C350.728 340.682 350.778 340.54 350.773 340.395C350.778 340.249 350.728 340.107 350.633 339.997C350.537 339.887 350.403 339.818 350.258 339.803H254.971C249.044 339.803 244.241 345.392 244.241 352.278C244.241 359.163 249.044 364.733 254.971 364.733H350.258C350.402 364.723 350.535 364.658 350.631 364.551C350.727 364.444 350.778 364.304 350.773 364.161C350.778 364.088 350.769 364.015 350.746 363.946C350.723 363.877 350.686 363.813 350.638 363.758C350.591 363.703 350.532 363.658 350.467 363.626C350.402 363.593 350.331 363.574 350.258 363.569H290.17C284.815 363.569 280.451 358.591 280.451 352.278Z" fill="#466EB6"/>
<path d="M338.805 346.537H332.249C330.82 346.537 329.676 346.994 329.676 347.567V347.662H338.805V346.537Z" fill="#087E8B"/>
<path d="M344.408 349.055C344.408 347.624 342.693 346.46 340.596 346.46H332.173C333.774 346.46 335.07 347.338 335.07 348.368V376.33L339.739 372.725L344.484 376.33L344.408 349.055Z" fill="#50BFA5"/>
<path d="M443.469 173.898L452.216 171.609L446.289 250.671L435.807 251.033L441.106 176.778C441.156 176.113 441.409 175.48 441.832 174.964C442.255 174.449 442.827 174.076 443.469 173.898Z" fill="#0B3954"/>
<path d="M449.491 253.131H448.881C448.011 252.972 447.232 252.492 446.699 251.785C446.165 251.079 445.917 250.197 446.003 249.316L451.816 174.927C451.825 174.494 451.922 174.067 452.102 173.672C452.282 173.278 452.54 172.924 452.862 172.633C453.183 172.342 453.56 172.119 453.97 171.979C454.38 171.839 454.814 171.784 455.246 171.818C456.117 171.973 456.897 172.453 457.428 173.161C457.959 173.869 458.201 174.753 458.105 175.633L452.388 250.022C452.356 250.801 452.046 251.543 451.515 252.113C450.983 252.684 450.265 253.045 449.491 253.131Z" fill="#C1CFDA"/>
<path d="M366.629 256.889V257.06C366.664 258.423 367.233 259.717 368.214 260.663C369.195 261.609 370.508 262.131 371.87 262.115L445.698 255.592C447.038 255.367 448.235 254.622 449.027 253.517C449.82 252.413 450.144 251.04 449.929 249.698C449.94 249.571 449.94 249.443 449.929 249.316L366.629 256.889Z" fill="#C1CFDA"/>
<path d="M418.027 336.771C413.205 339.441 398.436 334.73 398.436 334.31C398.207 338.354 381.894 377.913 381.894 377.913V390.082C381.894 390.082 415.53 391.685 415.054 388.709C414.577 385.734 412.748 387.66 406.04 382.052C405.449 381.556 396.015 379.363 398.569 373.774C403.715 362.521 414.635 343.771 418.027 336.771Z" fill="#F7A491"/>
<path d="M372.708 308.37C372.213 306.863 404.42 293.11 405.868 294.751C408.422 297.497 388.431 349.417 388.431 349.417L411.3 356.436C411.3 356.436 435.16 296.467 434.169 285.5C433.178 274.532 421.209 262.077 395.31 270.05C369.411 278.023 372.708 308.37 372.708 308.37Z" fill="#355389"/>
<path d="M439.41 343.58C433.405 342.67 427.34 342.211 421.267 342.207C421.934 347.243 425.078 373.031 424.583 374.633C423.109 378.506 420.439 381.807 416.96 384.055C416.96 384.055 441.982 406.639 443.488 404.026C444.993 401.413 442.363 401.756 440.724 393.154C440.591 392.391 436.913 380.374 436.76 373.908C436.246 361.529 439.219 350.447 439.41 343.58Z" fill="#F7A491"/>
<path d="M431.386 259.254C427.88 257.347 418.846 257.347 408.86 257.957C389.441 259.25 370.267 263.019 351.802 269.173L339.453 273.274V260.589C339.453 260.589 300.137 253.99 298.765 263.756C296.707 278.443 299.26 308.255 312.372 314.912C353.06 335.588 410.099 281.971 410.309 288.99C410.575 298.413 418.522 333.471 420.542 348.826C426.26 348.921 435.884 348.826 440.076 347.948C440.934 317.888 441.315 264.538 431.386 259.254Z" fill="#466EB6"/>
<path d="M380.789 390.502H417.627C418.961 390.369 419.266 389.281 418.789 388.595C417.836 387.24 410.766 384.055 406.021 381.919C397.769 382.892 383.152 379.706 381.894 377.818C378.406 382.567 380.045 390.349 380.789 390.502Z" fill="#0B3954"/>
<path d="M416.121 384.551L444.231 407.039C445.355 407.764 446.27 407.039 446.327 406.334C446.442 404.655 443.011 397.712 440.61 392.982C433.597 388.499 424.354 376.769 424.526 374.461C421.629 377.055 415.645 383.96 416.121 384.551Z" fill="#0B3954"/>
<path d="M352.564 136.627C351.611 127.986 350.659 119.327 343.455 112.994C340.708 110.569 337.33 108.974 333.713 108.397C330.096 107.819 326.389 108.283 323.025 109.733C302.386 117.515 313.02 135.845 286.721 154.328C278.545 160.05 269.569 164.017 263.375 171.742C254.761 182.576 258.02 195.604 265.872 204.302C303.434 245.902 345.38 189.71 348.391 176.225C350.544 166.173 353.098 142.197 352.564 136.627Z" fill="#0B3954"/>
<path d="M344.941 185.228C343.05 181.732 340.976 178.338 338.728 175.061C335.546 169.339 327.294 166.535 327.294 166.535C327.294 166.535 324.531 166.535 321.386 166.745C321.271 167.139 321.061 167.499 320.776 167.794C319.576 168.691 312.772 167.527 308.389 170.522C293.657 183.149 297.736 244.395 298.86 263.736L343.722 264.156C343.722 264.156 338.004 222.556 347.171 211.855C353.498 204.416 349.401 193.62 344.941 185.228Z" fill="#FF5A5F"/>
<path d="M324.645 145.82C324.645 145.82 322.168 163.445 320.452 167.736C318.737 172.028 329.981 181.088 339.224 183.949C348.467 186.81 336.384 174.412 336.785 169.911C337.185 165.409 338.862 143.665 338.862 143.665L324.645 145.82Z" fill="#F7A491"/>
<path d="M338.385 149.883C338.652 146.297 338.843 143.665 338.843 143.665L324.645 145.82C324.645 145.82 324.283 147.899 323.883 150.818C329.695 154.175 334.822 153.107 338.385 149.883Z" fill="#F47458"/>
<path d="M329.085 113.643C325.387 114.667 322.176 116.981 320.033 120.166C316.584 125.45 314.202 140.995 325.598 148.262C336.994 155.529 345.837 145.249 345.989 135.235C346.142 125.221 343.988 111.869 329.085 113.643Z" fill="#F7A491"/>
<path d="M348.6 132.107C347.628 134.529 345.685 136.036 344.293 135.464C342.902 134.891 342.54 132.488 343.493 130.066C344.446 127.643 346.409 126.251 347.8 126.709C349.191 127.166 349.572 129.703 348.6 132.107Z" fill="#F7A491"/>
<path d="M330.782 113.299C330.782 113.299 323.635 129.341 317.441 130.752C311.248 132.164 311.248 140.289 311.248 140.289C311.248 140.289 311.4 121.654 317.27 117.4C321.281 114.75 325.976 113.326 330.782 113.299Z" fill="#0B3954"/>
<path d="M319.843 134.109C320.681 136.703 319.843 139.278 318.165 139.832C316.488 140.385 314.354 138.725 313.477 136.131C312.601 133.537 313.477 130.962 315.173 130.409C316.87 129.856 319.023 131.496 319.843 134.109Z" fill="#F7A491"/>
<path d="M400.075 249.869C397.388 248.896 393.386 248.782 393.443 248.419C393.71 246.97 405.601 251.586 404.001 249.488C403.105 248.324 394.205 244.185 392.052 244.872C389.898 245.558 376.177 249.392 376.177 249.392L338.519 240.561C338.519 240.561 328.99 218.95 328.075 200.372C321.002 201.238 314.183 203.556 308.046 207.181C311.343 224.939 319.347 253.722 328.19 259.12C331.906 261.409 376.348 256.411 376.348 256.411C380.182 256.197 384 255.757 387.783 255.095C389.002 254.638 392.128 252.864 393.824 252.387C397.635 251.3 404.572 254.046 404.591 253.283C403.596 251.592 401.972 250.365 400.075 249.869Z" fill="#F7A491"/>
<path d="M328.304 180.497C327.942 174.775 325.789 169.263 319.709 167.489C317.82 166.99 315.84 166.948 313.931 167.366C312.023 167.784 310.241 168.65 308.732 169.892C305.149 172.829 304.139 177.522 304.177 181.966C304.128 192.194 304.983 202.407 306.731 212.484C313.789 208.735 321.477 206.317 329.409 205.351C329.409 205.351 328.781 188.051 328.304 180.497Z" fill="#FF858E"/>
<path d="M219.752 147.728L186.935 141.605L187.507 138.63C187.602 138.067 187.474 137.489 187.151 137.019C186.827 136.549 186.333 136.223 185.773 136.112L167.992 132.812C167.431 132.706 166.851 132.828 166.379 133.149C165.908 133.471 165.583 133.968 165.477 134.529L164.924 137.505L161.36 136.837C161.084 136.788 160.8 136.793 160.526 136.854C160.251 136.915 159.992 137.029 159.761 137.19C159.531 137.351 159.335 137.556 159.184 137.794C159.033 138.031 158.931 138.296 158.883 138.573L151.526 177.884C151.431 178.447 151.559 179.025 151.883 179.495C152.207 179.966 152.701 180.291 153.261 180.402L211.634 191.293C211.911 191.343 212.194 191.337 212.469 191.276C212.743 191.216 213.003 191.102 213.233 190.94C213.463 190.779 213.659 190.574 213.81 190.337C213.961 190.099 214.063 189.835 214.111 189.558L221.43 150.246C221.485 149.97 221.486 149.687 221.431 149.411C221.377 149.135 221.269 148.873 221.113 148.639C220.957 148.405 220.757 148.204 220.523 148.048C220.29 147.892 220.028 147.783 219.752 147.728Z" fill="#F7CC7F"/>
<path d="M214.302 189.768C214.154 190.287 213.819 190.733 213.361 191.019C212.903 191.304 212.355 191.409 211.824 191.313L153.07 180.364C152.543 180.267 152.072 179.976 151.748 179.549C151.424 179.123 151.27 178.59 151.317 178.056L154.366 142.827C154.433 142.266 154.715 141.754 155.153 141.398C155.59 141.042 156.148 140.871 156.71 140.919H156.92L222.192 153.088C222.754 153.195 223.251 153.519 223.576 153.991C223.9 154.462 224.026 155.043 223.926 155.606V155.797L214.302 189.768Z" fill="#FAE0B2"/>
<path d="M175.71 234.229C175.71 234.229 160.464 236.785 161.894 248.706C163.323 260.627 179.408 269.916 193.758 262.535C213.082 252.616 205.459 227.381 191.7 225.436C177.94 223.49 175.71 234.229 175.71 234.229Z" fill="#FF5A5F"/>
<path d="M182.19 228.983C182.19 228.983 186.154 224.882 194.882 228.602C203.611 232.321 204.24 249.678 196.464 248.668C188.689 247.657 175.977 231.482 182.19 228.983Z" fill="#F48C7F"/>
<path d="M384.6 315.599H233.112C230.852 315.599 228.686 316.497 227.088 318.096C225.491 319.695 224.593 321.863 224.593 324.125V331.297C224.598 333.556 225.497 335.722 227.094 337.32C228.69 338.918 230.854 339.818 233.112 339.823H384.6C381.436 336.586 379.665 332.238 379.665 327.711C379.665 323.183 381.436 318.835 384.6 315.599Z" fill="#C81D25"/>
<path d="M381.913 319.184H300.937C298.678 319.184 296.511 320.082 294.914 321.681C293.316 323.28 292.419 325.449 292.419 327.71C292.419 329.971 293.316 332.14 294.914 333.739C296.511 335.338 298.678 336.236 300.937 336.236H381.913C380.45 333.633 379.682 330.697 379.682 327.71C379.682 324.724 380.45 321.787 381.913 319.184Z" fill="#FAE0B2"/>
<path d="M491.551 307.874L480.116 279.053C479.841 278.355 479.852 277.576 480.149 276.886C480.445 276.196 481.002 275.652 481.698 275.372L523.015 258.892C523.712 258.616 524.491 258.627 525.18 258.924C525.869 259.221 526.413 259.778 526.693 260.475L538.127 289.296C538.403 289.994 538.391 290.773 538.095 291.463C537.799 292.153 537.242 292.697 536.546 292.977L495.229 309.457C494.534 309.732 493.758 309.72 493.072 309.423C492.386 309.126 491.846 308.569 491.57 307.874H491.551Z" fill="#FAE0B2"/>
<path d="M530.523 291.203L520.271 265.3C520.194 265.098 520.199 264.873 520.285 264.674C520.37 264.475 520.529 264.317 520.728 264.232C520.827 264.192 520.932 264.172 521.039 264.174C521.145 264.175 521.25 264.198 521.348 264.241C521.446 264.283 521.534 264.345 521.607 264.422C521.681 264.499 521.738 264.59 521.776 264.69L532.105 290.612C532.145 290.71 532.165 290.816 532.164 290.923C532.162 291.029 532.139 291.135 532.097 291.232C532.054 291.33 531.993 291.418 531.915 291.492C531.838 291.565 531.747 291.623 531.648 291.661C531.545 291.713 531.433 291.743 531.317 291.748C531.202 291.753 531.087 291.734 530.981 291.69C530.874 291.647 530.778 291.581 530.699 291.496C530.62 291.412 530.56 291.312 530.523 291.203Z" fill="#0B3954"/>
<path d="M525.607 287.789L517.126 266.521C517.086 266.422 517.066 266.317 517.068 266.21C517.069 266.103 517.092 265.998 517.134 265.901C517.177 265.803 517.239 265.715 517.316 265.641C517.393 265.568 517.484 265.51 517.583 265.472C517.681 265.432 517.786 265.411 517.891 265.411C517.997 265.411 518.101 265.432 518.199 265.473C518.296 265.514 518.385 265.574 518.459 265.649C518.533 265.724 518.592 265.813 518.632 265.911L527.112 287.197C527.152 287.296 527.172 287.402 527.171 287.509C527.169 287.615 527.146 287.721 527.104 287.818C527.061 287.916 527 288.004 526.922 288.078C526.845 288.151 526.754 288.209 526.655 288.247C526.556 288.286 526.45 288.306 526.344 288.305C526.237 288.303 526.132 288.281 526.035 288.238C525.937 288.195 525.849 288.134 525.775 288.057C525.702 287.979 525.644 287.888 525.607 287.789Z" fill="#0B3954"/>
<path d="M524.387 293.74L514.058 267.818C513.982 267.618 513.988 267.397 514.073 267.201C514.159 267.005 514.317 266.85 514.515 266.769C514.614 266.729 514.72 266.71 514.826 266.711C514.933 266.712 515.038 266.735 515.135 266.778C515.233 266.82 515.321 266.882 515.395 266.959C515.468 267.036 515.525 267.128 515.563 267.227L525.988 293.053C526.028 293.152 526.048 293.258 526.046 293.365C526.045 293.471 526.022 293.576 525.979 293.674C525.937 293.772 525.875 293.86 525.798 293.934C525.721 294.007 525.63 294.065 525.53 294.102C525.433 294.161 525.325 294.198 525.212 294.211C525.099 294.224 524.985 294.213 524.877 294.179C524.769 294.145 524.669 294.088 524.585 294.012C524.5 293.937 524.433 293.844 524.387 293.74Z" fill="#0B3954"/>
<path d="M518.956 288.971L511.009 268.943C510.969 268.845 510.949 268.739 510.95 268.632C510.952 268.526 510.974 268.42 511.017 268.323C511.06 268.225 511.121 268.137 511.198 268.063C511.275 267.99 511.366 267.932 511.466 267.894C511.565 267.854 511.67 267.835 511.777 267.836C511.883 267.837 511.989 267.86 512.086 267.903C512.184 267.945 512.272 268.007 512.345 268.084C512.419 268.161 512.476 268.253 512.514 268.352L520.461 288.342C520.501 288.442 520.521 288.549 520.52 288.657C520.519 288.765 520.496 288.872 520.454 288.971C520.412 289.07 520.35 289.16 520.273 289.235C520.195 289.311 520.104 289.37 520.004 289.41C519.806 289.486 519.587 289.484 519.391 289.402C519.196 289.32 519.04 289.166 518.956 288.971Z" fill="#0B3954"/>
<path d="M530.238 262.535L530.028 262.02C529.998 261.929 529.932 261.854 529.847 261.811C529.761 261.768 529.662 261.761 529.571 261.791L525.645 263.355C525.559 263.396 525.492 263.468 525.457 263.556C525.422 263.645 525.421 263.743 525.454 263.832L525.664 264.366C525.698 264.453 525.765 264.524 525.85 264.563C525.935 264.602 526.033 264.607 526.121 264.576L530.028 263.012C530.074 262.995 530.115 262.969 530.151 262.936C530.186 262.902 530.214 262.862 530.234 262.818C530.253 262.773 530.264 262.725 530.264 262.677C530.265 262.628 530.256 262.58 530.238 262.535Z" fill="#0B3954"/>
<path d="M531.133 264.766L530.924 264.232C530.909 264.187 530.885 264.146 530.854 264.111C530.822 264.075 530.784 264.047 530.741 264.027C530.698 264.008 530.651 263.997 530.604 263.996C530.557 263.995 530.51 264.004 530.466 264.022L526.54 265.586C526.497 265.605 526.457 265.632 526.424 265.666C526.39 265.701 526.364 265.741 526.346 265.785C526.329 265.83 526.32 265.877 526.32 265.925C526.321 265.972 526.331 266.019 526.35 266.063L526.559 266.578C526.59 266.669 526.655 266.744 526.741 266.787C526.827 266.83 526.926 266.837 527.017 266.807L530.943 265.243C530.987 265.224 531.026 265.197 531.06 265.163C531.093 265.129 531.119 265.089 531.137 265.044C531.155 265 531.164 264.953 531.163 264.905C531.162 264.857 531.152 264.81 531.133 264.766Z" fill="#0B3954"/>
<path d="M532.029 267.036L531.819 266.521C531.781 266.432 531.712 266.359 531.624 266.317C531.537 266.275 531.437 266.266 531.343 266.292L527.417 267.856C527.373 267.875 527.333 267.902 527.301 267.936C527.268 267.971 527.243 268.012 527.226 268.057C527.21 268.102 527.204 268.149 527.207 268.197C527.21 268.245 527.223 268.291 527.246 268.333L527.436 268.848C527.474 268.938 527.544 269.01 527.631 269.052C527.719 269.095 527.819 269.103 527.913 269.077L531.838 267.513C531.924 267.471 531.991 267.4 532.026 267.311C532.061 267.223 532.062 267.125 532.029 267.036Z" fill="#0B3954"/>
<path d="M532.906 269.23L532.696 268.715C532.666 268.624 532.6 268.548 532.515 268.506C532.429 268.463 532.33 268.456 532.239 268.486L528.313 270.05C528.227 270.091 528.161 270.163 528.125 270.251C528.09 270.34 528.089 270.438 528.122 270.527L528.332 271.061C528.366 271.148 528.433 271.219 528.518 271.258C528.603 271.297 528.701 271.302 528.789 271.271L532.601 269.706C532.655 269.701 532.707 269.683 532.753 269.654C532.799 269.626 532.838 269.587 532.868 269.541C532.897 269.496 532.916 269.444 532.922 269.39C532.929 269.336 532.923 269.281 532.906 269.23Z" fill="#0B3954"/>
<path d="M533.782 271.461L533.611 270.851C533.577 270.763 533.51 270.693 533.424 270.654C533.339 270.614 533.242 270.61 533.153 270.641L529.247 272.205C529.203 272.224 529.163 272.251 529.13 272.285C529.096 272.319 529.07 272.36 529.052 272.404C529.035 272.448 529.026 272.496 529.027 272.543C529.027 272.591 529.037 272.638 529.056 272.682L529.266 273.216C529.3 273.304 529.367 273.374 529.452 273.414C529.537 273.453 529.634 273.457 529.723 273.426L533.649 271.862C533.71 271.817 533.756 271.755 533.78 271.683C533.804 271.611 533.805 271.534 533.782 271.461Z" fill="#0B3954"/>
<path d="M534.678 273.693L534.487 273.159C534.446 273.072 534.375 273.004 534.288 272.966C534.201 272.927 534.102 272.921 534.011 272.949L530.085 274.513C530 274.554 529.933 274.626 529.898 274.714C529.863 274.803 529.861 274.901 529.895 274.99L530.104 275.524C530.142 275.613 530.213 275.684 530.301 275.723C530.39 275.762 530.49 275.766 530.581 275.734L534.507 274.169C534.551 274.151 534.59 274.124 534.623 274.089C534.656 274.055 534.681 274.014 534.697 273.969C534.713 273.924 534.72 273.876 534.717 273.829C534.713 273.781 534.7 273.735 534.678 273.693Z" fill="#0B3954"/>
<path d="M535.517 275.925L535.307 275.391C535.269 275.306 535.202 275.238 535.118 275.2C535.034 275.161 534.938 275.154 534.85 275.181L530.924 276.745C530.88 276.764 530.84 276.791 530.807 276.825C530.773 276.859 530.747 276.9 530.729 276.944C530.712 276.988 530.703 277.036 530.704 277.083C530.704 277.131 530.714 277.178 530.733 277.222L530.943 277.756C530.977 277.844 531.044 277.914 531.129 277.953C531.214 277.993 531.312 277.997 531.4 277.966L535.326 276.402C535.37 276.383 535.41 276.356 535.443 276.322C535.476 276.288 535.503 276.247 535.52 276.203C535.538 276.159 535.547 276.111 535.546 276.064C535.546 276.016 535.535 275.969 535.517 275.925Z" fill="#0B3954"/>
<path d="M536.469 278.157L536.26 277.622C536.219 277.536 536.148 277.468 536.06 277.429C535.973 277.391 535.875 277.385 535.783 277.413L531.877 278.977C531.833 278.995 531.793 279.023 531.76 279.057C531.726 279.091 531.7 279.131 531.682 279.175C531.665 279.22 531.656 279.267 531.656 279.315C531.657 279.363 531.667 279.41 531.686 279.454L531.896 279.988C531.93 280.075 531.997 280.146 532.082 280.185C532.167 280.224 532.264 280.229 532.353 280.197L536.279 278.633C536.364 278.592 536.431 278.52 536.466 278.432C536.502 278.344 536.503 278.245 536.469 278.157Z" fill="#0B3954"/>
<path d="M537.422 280.388L537.213 279.854C537.178 279.766 537.112 279.696 537.026 279.656C536.941 279.617 536.844 279.613 536.755 279.644L532.829 281.208C532.744 281.25 532.677 281.321 532.642 281.41C532.607 281.498 532.606 281.596 532.639 281.685L532.849 282.219C532.887 282.308 532.957 282.379 533.045 282.418C533.134 282.457 533.234 282.461 533.325 282.429L537.232 280.865C537.276 280.846 537.315 280.819 537.349 280.785C537.382 280.751 537.408 280.71 537.426 280.666C537.444 280.622 537.452 280.574 537.452 280.527C537.451 280.479 537.441 280.432 537.422 280.388Z" fill="#0B3954"/>
<path d="M538.242 282.62L538.032 282.105C538.002 282.014 537.936 281.939 537.851 281.896C537.765 281.853 537.666 281.846 537.575 281.876L533.649 283.44C533.605 283.459 533.565 283.486 533.532 283.52C533.499 283.554 533.472 283.594 533.455 283.639C533.437 283.683 533.428 283.73 533.429 283.778C533.429 283.826 533.439 283.873 533.458 283.917L533.668 284.432C533.698 284.523 533.764 284.598 533.849 284.641C533.935 284.684 534.034 284.691 534.125 284.661L538.051 283.097C538.137 283.055 538.203 282.983 538.239 282.895C538.274 282.807 538.275 282.709 538.242 282.62Z" fill="#0B3954"/>
<path d="M539.138 284.852L538.928 284.337C538.89 284.247 538.82 284.174 538.733 284.132C538.645 284.09 538.545 284.081 538.451 284.108L534.526 285.672C534.444 285.716 534.381 285.79 534.349 285.878C534.318 285.965 534.319 286.062 534.354 286.149L534.564 286.683C534.598 286.77 534.665 286.841 534.75 286.88C534.835 286.919 534.932 286.924 535.021 286.892L538.947 285.328C539.032 285.287 539.099 285.215 539.134 285.127C539.17 285.039 539.171 284.941 539.138 284.852Z" fill="#0B3954"/>
<path d="M540.014 287.083L539.804 286.568C539.774 286.477 539.709 286.402 539.623 286.359C539.537 286.316 539.438 286.309 539.347 286.339L535.421 287.903C535.336 287.945 535.269 288.017 535.234 288.105C535.198 288.193 535.197 288.291 535.231 288.38L535.44 288.914C535.478 289.003 535.549 289.074 535.637 289.113C535.726 289.152 535.825 289.156 535.917 289.124L539.824 287.56C539.867 287.541 539.907 287.514 539.94 287.48C539.974 287.446 540 287.405 540.018 287.361C540.035 287.317 540.044 287.269 540.044 287.222C540.043 287.174 540.033 287.127 540.014 287.083Z" fill="#0B3954"/>
<path d="M495.496 331.888L479.106 355.253C479.1 355.311 479.1 355.368 479.106 355.425L477.429 360.556C477.38 360.721 477.397 360.897 477.475 361.05C477.553 361.203 477.687 361.32 477.848 361.376C477.948 361.403 478.052 361.409 478.154 361.393C478.256 361.376 478.353 361.338 478.439 361.281L482.822 357.962C482.877 357.92 482.922 357.869 482.956 357.809L499.307 334.406C499.404 334.266 499.443 334.094 499.414 333.926C499.386 333.758 499.293 333.609 499.155 333.509L496.391 331.754C496.254 331.655 496.084 331.613 495.916 331.638C495.749 331.663 495.598 331.753 495.496 331.888Z" fill="#FF5A5F"/>
<path d="M482.88 357.79L478.649 360.976L477.505 360.213L479.087 355.33C480.441 356.002 481.714 356.828 482.88 357.79Z" fill="#F7CC7F"/>
<path d="M398.302 40.189C400.665 42.0964 404.782 48.1428 410.023 52.3963C413.072 54.895 415.435 54.3037 419.361 54.7234C437.904 56.9741 432.892 60.7698 435.102 61.1513C434.474 62.62 428.68 74.9227 427.613 77.4024C427.255 78.4506 426.527 79.3316 425.565 79.8797C424.603 80.4277 423.474 80.6049 422.391 80.3779C418.58 79.8438 414.768 79.4624 410.957 78.6231C401.275 76.525 395.882 71.6802 388.945 65.7863C388.078 65.1483 387.466 64.2224 387.218 63.1741C386.97 62.1258 387.103 61.0235 387.592 60.0641C390.688 53.1938 394.267 46.5521 398.302 40.189Z" fill="#0B3954"/>
<path d="M440.553 75.9525C440.553 79.9962 440.782 80.7973 439.047 80.187C438.001 79.806 436.982 79.3535 435.998 78.8327C435.293 78.4703 435.274 77.9935 435.827 77.4212L438.323 74.9798C438.045 74.1892 438.051 73.3264 438.34 72.5397C438.628 71.753 439.182 71.0915 439.905 70.669C440.21 70.4974 439.905 70.8598 442.573 64.9468C433.997 63.8978 427.994 63.192 417.55 61.895C414.814 61.5697 412.235 60.4415 410.137 58.6524L387.802 39.9408C387.567 39.7715 387.37 39.5545 387.225 39.3041C387.08 39.0536 386.989 38.7753 386.958 38.4873C386.928 38.1993 386.958 37.9082 387.048 37.6327C387.137 37.3573 387.284 37.1039 387.478 36.889C387.764 36.5832 388.128 36.3613 388.531 36.2471C388.934 36.1328 389.36 36.1305 389.765 36.2405C392.147 36.5456 415.492 39.4449 417.855 39.7119C420.9 40.0507 423.773 41.2929 426.107 43.2788L448.1 61.647C449.091 62.4863 449.377 63.2492 449.014 64.1839C448.94 64.4369 448.814 64.6716 448.644 64.8734C448.474 65.0751 448.265 65.2394 448.028 65.3559C447.792 65.4724 447.534 65.5386 447.271 65.5503C447.007 65.5619 446.745 65.5188 446.499 65.4237C446.329 65.3556 446.147 65.3264 445.964 65.3384C445.782 65.3504 445.605 65.4031 445.446 65.4929C445.287 65.5826 445.15 65.7069 445.045 65.8567C444.94 66.0065 444.87 66.1779 444.841 66.3583C443.411 70.1731 442.401 71.0887 442.744 72.5001C442.744 73.2245 442.538 73.9338 442.15 74.5452C441.762 75.1565 441.208 75.6447 440.553 75.9525Z" fill="#087E8B"/>
<path d="M528.103 189.825L500.584 165.238C498.793 163.636 499.536 160.336 501.994 158.944L523.968 146.489C524.574 146.098 525.288 145.906 526.009 145.94C526.729 145.975 527.422 146.233 527.989 146.679L555.508 171.266C557.299 172.868 556.556 176.168 554.098 177.56L532.124 189.996C531.519 190.39 530.807 190.585 530.086 190.554C529.366 190.523 528.672 190.268 528.103 189.825Z" fill="#0B3954"/>
<path d="M604.581 424.187H64.0142C63.8349 424.185 63.6569 424.218 63.4906 424.285C63.3242 424.352 63.1728 424.451 63.0451 424.577C62.9174 424.703 62.8161 424.853 62.7469 425.019C62.6777 425.184 62.6421 425.362 62.6421 425.541V426.915C62.6421 427.279 62.7867 427.628 63.044 427.886C63.3013 428.143 63.6503 428.288 64.0142 428.288H604.581C605.267 428.288 605.839 427.372 605.839 426.247C605.839 425.122 605.267 424.187 604.581 424.187Z" fill="#184655"/>
<path d="M537.384 325.86L560.863 318.937L564.579 336.504L537.384 325.86Z" fill="#FF5A5F"/>
<path d="M252.912 101.76L265.185 95.561L271.627 118.374L252.912 101.76Z" fill="#087E8B"/>
<path d="M218.476 91.5742V70.2114L241.173 66.9497L218.476 91.5742Z" fill="#C1CFDA"/>
<path d="M271.627 62.2385L262.27 41.2571L277.764 40.189L271.627 62.2385Z" fill="#FF5A5F"/>
<path d="M479.964 70.4404L485.071 90.6017L511.085 94.1876L479.964 70.4404Z" fill="#087E8B"/>
<path d="M519.985 118.373L556.499 89.8574L564.579 124.324L519.985 118.373Z" fill="#FF5A5F"/>
<path d="M527.169 347.09L564.579 369.197L509.084 407.364L527.169 347.09Z" fill="#466EB6"/>
<path d="M525.759 150.837L526.998 166.211L549.962 173.631" stroke="white" stroke-miterlimit="10"/>
</svg>
