<svg id="Layer_1" data-name="Layer 1" xmlns="http://www.w3.org/2000/svg" viewBox="0 0 1197.37 600"><defs><style>.cls-1{font-size:188.95px;font-family:IBMPlexSans-Bold, IBM Plex Sans;font-weight:700;}.cls-1,.cls-3{fill:#0b3954;}.cls-2,.cls-4{fill:#ff5a5f;}.cls-2{letter-spacing:0em;}.cls-5{fill:#c1cfda;}</style></defs><title>likbez-original-title-for-web</title><text class="cls-1" transform="translate(433.48 360.51)">Лик<tspan class="cls-2" x="366.94" y="0">Б</tspan><tspan x="491.08" y="0">ез</tspan></text><path class="cls-3" d="M209.09,297.86h0L83.56,376.32s98,72.32,120.82,149.79V415a19.62,19.62,0,1,1,9.42,0V526.54c22.78-76.67,120.82-150.22,120.82-150.22Z"/><path class="cls-3" d="M209.09,155.07c-43.33,0-78.46,43.91-78.46,98.07v66.69l78.46,39.23,78.46-39.23V253.14C287.55,199,252.42,155.07,209.09,155.07Z"/><path class="cls-4" d="M209.09,155.07S237.34,100.15,195,79.75C141.32,53.92,111.37,116.58,66.3,108c0,0,18.83,22,69,12.55-28.24,22-47.07,15.69-67.47,14.12,0,0,42.36,31.39,72.18,12.56C187,117.58,207.52,137.81,209.09,155.07Z"/><polygon class="cls-5" points="209.41 199.33 191.16 157.68 209.41 133.42 227.66 157.68 209.41 199.33"/><polygon class="cls-5" points="209.09 241.38 124.36 263.34 130.63 319.83 209.09 359.06 287.55 319.83 293.83 263.34 209.09 241.38"/></svg>