<svg id="Layer_1" data-name="Layer 1" xmlns="http://www.w3.org/2000/svg" viewBox="0 0 600 600"><defs><style>.cls-1{fill:#0b3954;}.cls-2{fill:#ff5a5f;}.cls-3{fill:#c1cfda;}</style></defs><title>likbez-original-for-web</title><path class="cls-1" d="M308.63,297.86h0L183.1,376.32s98,72.32,120.82,149.79V415a19.61,19.61,0,1,1,9.42,0V526.54c22.78-76.67,120.82-150.22,120.82-150.22Z"/><path class="cls-1" d="M308.63,155.07c-43.33,0-78.46,43.91-78.46,98.07v66.69l78.46,39.23,78.46-39.23V253.14C387.09,199,352,155.07,308.63,155.07Z"/><path class="cls-2" d="M308.63,155.07s28.25-54.92-14.12-75.32c-53.65-25.83-83.6,36.83-128.67,28.25,0,0,18.83,22,69,12.55-28.24,22-47.07,15.69-67.47,14.12,0,0,42.36,31.39,72.18,12.56C286.53,117.58,307.06,137.81,308.63,155.07Z"/><polygon class="cls-3" points="308.95 199.33 290.7 157.68 308.95 133.42 327.2 157.68 308.95 199.33"/><polygon class="cls-3" points="308.63 241.38 223.9 263.34 230.17 319.83 308.63 359.06 387.09 319.83 393.37 263.34 308.63 241.38"/></svg>