<svg id="Layer_1" data-name="Layer 1" xmlns="http://www.w3.org/2000/svg" viewBox="0 0 505 88">
    <defs>
        <style>.cls-1{fill:#0b3954;}.cls-2{fill:#ff5a5f;}.cls-3{fill:#c1cfda;}</style>
    </defs>
    <title>likbez-logo-long.ai</title>
    <path class="cls-1"
          d="M68.71,50.73h3a5.81,5.81,0,0,0,1-1.55,11.4,11.4,0,0,0,.75-2.4A27.49,27.49,0,0,0,74,43.26c.11-1.38.17-3,.17-5V30.14h18V55.67H86.63V35.08H79.57v4a54.68,54.68,0,0,1-.26,5.83,31.13,31.13,0,0,1-.69,4.23,12.93,12.93,0,0,1-1,2.89,8,8,0,0,1-1.3,1.83,6.91,6.91,0,0,1-2.43,1.61,9.73,9.73,0,0,1-3.24.47h-1.9Z"/>
    <path class="cls-1"
          d="M97.53,36.47h5.3v7.72l-.48,4.46h.11l2.24-4.1L110,36.47h4.82v19.2h-5.3V48l.48-4.46h-.11l-2.24,4.1-5.34,8.08H97.53Z"/>
    <path class="cls-1"
          d="M119.91,36.47h5.41v7.35h2.78l2.53-4.68a5.48,5.48,0,0,1,1.73-2,4.62,4.62,0,0,1,2.51-.62h2.23v4.21h-1.94l-1.65,3.07a4.52,4.52,0,0,1-1,1.35,3.14,3.14,0,0,1-1.15.59v.18a3.59,3.59,0,0,1,1.15.51,3.44,3.44,0,0,1,1,1.17l2.16,3.92h2v4.2h-2.52a4.5,4.5,0,0,1-2.49-.62,5.92,5.92,0,0,1-1.79-2.12L128.1,48h-2.78v7.64h-5.41Z"/>
    <path class="cls-2"
          d="M141.82,30.14h17.26v4.94H147.37v4.79h6.51a8.4,8.4,0,0,1,3.22.59,7,7,0,0,1,2.43,1.64,7.33,7.33,0,0,1,1.56,2.53,9.07,9.07,0,0,1,.55,3.18,8.81,8.81,0,0,1-.55,3.14,7.45,7.45,0,0,1-1.56,2.49,6.89,6.89,0,0,1-2.43,1.65,8.4,8.4,0,0,1-3.22.58H141.82Zm11.41,20.7a2.8,2.8,0,0,0,2-.64,2.37,2.37,0,0,0,.72-1.88v-1.1a2.38,2.38,0,0,0-.72-1.88,2.8,2.8,0,0,0-2-.64h-5.86v6.14Z"/>
    <path class="cls-1"
          d="M173.56,56.11a10.21,10.21,0,0,1-3.91-.71,8.16,8.16,0,0,1-2.91-2A8.48,8.48,0,0,1,165,50.22a13.24,13.24,0,0,1-.61-4.17,13.55,13.55,0,0,1,.59-4.11,8.65,8.65,0,0,1,1.74-3.16,7.55,7.55,0,0,1,2.83-2,9.67,9.67,0,0,1,3.84-.72,9.43,9.43,0,0,1,4.08.81A7.67,7.67,0,0,1,180.2,39a8.79,8.79,0,0,1,1.57,3.13,13.73,13.73,0,0,1,.49,3.71v1.61H169.94v.29a3.72,3.72,0,0,0,4.24,4.1,5,5,0,0,0,2.74-.67,11.17,11.17,0,0,0,2-1.61l2.71,3.37a8.69,8.69,0,0,1-3.35,2.35A12.39,12.39,0,0,1,173.56,56.11ZM173.45,40a3.22,3.22,0,0,0-2.58,1.08,4.23,4.23,0,0,0-.93,2.87v.29h6.73v-.33a4.65,4.65,0,0,0-.79-2.83A2.8,2.8,0,0,0,173.45,40Z"/>
    <path class="cls-1"
          d="M192.8,56.11a11.47,11.47,0,0,1-4.81-.9,11.64,11.64,0,0,1-3.57-2.54l3.18-3.25a6.7,6.7,0,0,0,5.23,2.41,4.33,4.33,0,0,0,2.45-.56,1.79,1.79,0,0,0,.81-1.54v-.4c0-1.09-.72-1.63-2.16-1.63h-4.24V44.11h3.77c1.43,0,2.15-.54,2.15-1.63v-.36a1.52,1.52,0,0,0-.73-1.32,4,4,0,0,0-2.19-.49,6,6,0,0,0-2.71.6A5.16,5.16,0,0,0,188,42.58l-3.22-2.89A9.72,9.72,0,0,1,188.3,37a11.31,11.31,0,0,1,4.79-.95c2.66,0,4.65.5,6,1.48a4.53,4.53,0,0,1,2,3.79,4,4,0,0,1-1,2.89A5.09,5.09,0,0,1,197,45.5v.19A5.61,5.61,0,0,1,200.31,47,3.8,3.8,0,0,1,201.54,50a5.21,5.21,0,0,1-2.31,4.51A11,11,0,0,1,192.8,56.11Z"/>
    <path class="cls-1" d="M216.68,60.72V27.88h4.61V60.72Z"/>
    <path class="cls-1"
          d="M248,56.11a12.24,12.24,0,0,1-4.61-.84,9.32,9.32,0,0,1-3.55-2.51,11.55,11.55,0,0,1-2.26-4.13,18.32,18.32,0,0,1-.81-5.72,18.43,18.43,0,0,1,.81-5.73,11.64,11.64,0,0,1,2.26-4.13,9.29,9.29,0,0,1,3.55-2.5,13.07,13.07,0,0,1,9.22,0,9.29,9.29,0,0,1,3.55,2.5,11.64,11.64,0,0,1,2.26,4.13,18.43,18.43,0,0,1,.81,5.73,18.32,18.32,0,0,1-.81,5.72,11.55,11.55,0,0,1-2.26,4.13,9.32,9.32,0,0,1-3.55,2.51A12.24,12.24,0,0,1,248,56.11Zm0-4.94A4.92,4.92,0,0,0,252,49.53a7.06,7.06,0,0,0,1.41-4.72V41A7.06,7.06,0,0,0,252,36.29a5.51,5.51,0,0,0-7.86,0A7.06,7.06,0,0,0,242.68,41v3.8a7.06,7.06,0,0,0,1.41,4.72A4.92,4.92,0,0,0,248,51.17Z"/>
    <path class="cls-1" d="M263.6,36.47H269v7.35h6.51V36.47h5.41v19.2h-5.41V48H269v7.64H263.6Z"/>
    <path class="cls-1"
          d="M284,51.47h2.48a4.43,4.43,0,0,0,.64-1.21,11,11,0,0,0,.48-1.78,22.08,22.08,0,0,0,.31-2.5c.07-1,.11-2.12.11-3.44V36.47h15.25v19.2h-5.41v-15h-4.65v2.15q0,2.49-.18,4.38a20.62,20.62,0,0,1-.55,3.25,10.79,10.79,0,0,1-.86,2.3,6.18,6.18,0,0,1-1.08,1.52,4.82,4.82,0,0,1-2,1.24,9.39,9.39,0,0,1-2.87.37H284Z"/>
    <path class="cls-1"
          d="M322.52,55.67a3.42,3.42,0,0,1-2.44-.91,4.24,4.24,0,0,1-1.22-2.45h-.22a4.41,4.41,0,0,1-1.94,2.83,6.63,6.63,0,0,1-3.69,1,6,6,0,0,1-4.43-1.53,5.47,5.47,0,0,1-1.53-4,5,5,0,0,1,2.21-4.5,10.73,10.73,0,0,1,6-1.48h3v-1.2a2.74,2.74,0,0,0-3.18-3,4.18,4.18,0,0,0-2.56.7A6.5,6.5,0,0,0,311,42.58l-3.22-2.87a8.43,8.43,0,0,1,2.94-2.7,10,10,0,0,1,4.81-1q4.1,0,6.14,1.79a6.57,6.57,0,0,1,2.05,5.23v8.42h1.79v4.2ZM315,52.34a4.42,4.42,0,0,0,2.32-.58,2,2,0,0,0,1-1.88V47.63h-2.63c-2.12,0-3.18.71-3.18,2.14v.54a1.78,1.78,0,0,0,.65,1.54A3.06,3.06,0,0,0,315,52.34Z"/>
    <path class="cls-1"
          d="M329.13,36.47h5.31v7.72L334,48.65h.11l2.23-4.1,5.34-8.08h4.83v19.2h-5.3V48l.47-4.46h-.11l-2.23,4.1L334,55.67h-4.83Zm8.71-2a6.67,6.67,0,0,1-3.91-1.06,7,7,0,0,1-2.35-3l-.76-1.86L335,27l1.17,3.7a2.76,2.76,0,0,0,.7.18,6,6,0,0,0,.95.07,6.08,6.08,0,0,0,1-.07,2.55,2.55,0,0,0,.69-.18l1.17-3.7,4.21,1.58-.77,1.86a6.93,6.93,0,0,1-2.34,3A6.67,6.67,0,0,1,337.84,34.5Z"/>
    <path class="cls-1" d="M351.52,36.47h5.41v7.35h6.51V36.47h5.41v19.2h-5.41V48h-6.51v7.64h-5.41Z"/>
    <path class="cls-2" d="M373.31,47.15V41.88h10.87v5.27Z"/>
    <path class="cls-1" d="M388.64,36.47h5.41v15h4.79v-15h5.41v15H409v-15h5.42v19.2H388.64Z"/>
    <path class="cls-1"
          d="M419.5,36.47h5.42v7.35h2.78l2.52-4.68a5.4,5.4,0,0,1,1.74-2,4.58,4.58,0,0,1,2.5-.62h2.23v4.21h-1.94l-1.64,3.07a4.53,4.53,0,0,1-1,1.35,3.07,3.07,0,0,1-1.15.59v.18a3.49,3.49,0,0,1,1.15.51,3.33,3.33,0,0,1,1,1.17l2.16,3.92h2v4.2h-2.52a4.55,4.55,0,0,1-2.49-.62,5.92,5.92,0,0,1-1.79-2.12L427.7,48h-2.78v7.64H419.5Z"/>
    <path class="cls-1"
          d="M448.47,56.11a9.81,9.81,0,0,1-3.79-.69,7.61,7.61,0,0,1-2.81-2,9.1,9.1,0,0,1-1.78-3.18,14.33,14.33,0,0,1,0-8.34,9.09,9.09,0,0,1,1.78-3.16,7.54,7.54,0,0,1,2.81-2,10.58,10.58,0,0,1,7.57,0,7.58,7.58,0,0,1,2.82,2,8.92,8.92,0,0,1,1.77,3.16,14.33,14.33,0,0,1,0,8.34,8.93,8.93,0,0,1-1.77,3.18,7.65,7.65,0,0,1-2.82,2A9.8,9.8,0,0,1,448.47,56.11Zm0-4.28a3.17,3.17,0,0,0,2.49-1,4.09,4.09,0,0,0,.87-2.81V44.11A4.13,4.13,0,0,0,451,41.3a3.63,3.63,0,0,0-5,0,4.13,4.13,0,0,0-.88,2.81V48a4.1,4.1,0,0,0,.88,2.81A3.17,3.17,0,0,0,448.47,51.83Z"/>
    <path class="cls-1"
          d="M459,51.47h2.48a4.43,4.43,0,0,0,.64-1.21,11,11,0,0,0,.48-1.78A22.08,22.08,0,0,0,463,46c.07-1,.11-2.12.11-3.44V36.47h15.25v19.2H472.9v-15h-4.65v2.15q0,2.49-.18,4.38a20.62,20.62,0,0,1-.55,3.25,10.79,10.79,0,0,1-.86,2.3,6.18,6.18,0,0,1-1.08,1.52,4.82,4.82,0,0,1-2,1.24,9.35,9.35,0,0,1-2.87.37H459Z"/>
    <path class="cls-1"
          d="M497.55,55.67a3.42,3.42,0,0,1-2.44-.91,4.24,4.24,0,0,1-1.22-2.45h-.22a4.41,4.41,0,0,1-1.94,2.83,6.63,6.63,0,0,1-3.69,1,6,6,0,0,1-4.43-1.53,5.47,5.47,0,0,1-1.53-4,5,5,0,0,1,2.21-4.5,10.73,10.73,0,0,1,6-1.48h3v-1.2a2.74,2.74,0,0,0-3.18-3,4.2,4.2,0,0,0-2.56.7A6.5,6.5,0,0,0,486,42.58l-3.22-2.87a8.43,8.43,0,0,1,2.94-2.7,10,10,0,0,1,4.81-1q4.1,0,6.15,1.79a6.6,6.6,0,0,1,2,5.23v8.42h1.79v4.2Zm-7.5-3.33a4.39,4.39,0,0,0,2.32-.58,2,2,0,0,0,1-1.88V47.63h-2.63c-2.12,0-3.18.71-3.18,2.14v.54a1.8,1.8,0,0,0,.65,1.54A3.06,3.06,0,0,0,490.05,52.34Z"/>
    <path class="cls-1"
          d="M24.55,43.55h0L.25,58.73s19,14,23.38,29V66.21a3.8,3.8,0,1,1,1.83,0v21.6C29.87,73,48.84,58.73,48.84,58.73Z"/>
    <path class="cls-1"
          d="M24.55,15.91c-8.39,0-15.19,8.5-15.19,19V47.8l15.19,7.59L39.73,47.8V34.89C39.73,24.41,32.93,15.91,24.55,15.91Z"/>
    <path class="cls-2"
          d="M24.55,15.91S30,5.28,21.81,1.33C11.43-3.67,5.63,8.46-3.09,6.8c0,0,3.64,4.25,13.36,2.43C4.8,13.48,1.16,12.26-2.79,12c0,0,8.2,6.07,14,2.43C20.27,8.65,24.24,12.57,24.55,15.91Z"/>
    <polygon class="cls-3" points="24.61 24.48 21.07 16.41 24.61 11.72 28.14 16.41 24.61 24.48"/>
    <polygon class="cls-3" points="24.55 32.61 8.14 36.87 9.36 47.8 24.55 55.39 39.73 47.8 40.95 36.87 24.55 32.61"/>
</svg>
